# xmcd
#
# Track frame offsets: 
#        150
#        23400
#        40725
#        54225
#        77175
#        112500
#        124575
#        142499
#        167849
#        202348
#        235573
#        258447
#        278697
#        315672
#
# Disc length: 4374 seconds
#
# Revision: 0
# Processed by: cddbd v1.5.2PL0 Copyright (c) Steve Scherf et al.
# Submitted via: ExactAudioCopyFreeDBPlugin 1.0
#
DISCID=b711140e
DTITLE=Chump Change - Live Vol. 1
DYEAR=1999
DGENRE=Blues
TTITLE0=I Am Ready
TTITLE1=Sweet Little Chick
TTITLE2=Leave Here Walking (Going To Bourgogne)
TTITLE3=It don't Take Too Much
TTITLE4=Highway Is Like A Woman
TTITLE5=Family Life Blues
TTITLE6=Medly Sonny Boy II
TTITLE7=Here I Am... Again
TTITLE8=It's A Blues Affair
TTITLE9=N.C.C.E.
TTITLE10=Talk To Your Daughter
TTITLE11=I Agree
TTITLE12=Gotta Get On Up
TTITLE13=Lookin' Good
EXTD=
EXTT0=
EXTT1=
EXTT2=
EXTT3=
EXTT4=
EXTT5=
EXTT6=
EXTT7=
EXTT8=
EXTT9=
EXTT10=
EXTT11=
EXTT12=
EXTT13=
PLAYORDER=
